<svg width="12" height="12" xmlns="http://www.w3.org/2000/svg" viewBox="0 0 12 12"><defs><style>.cls-1{fill:#626261;fill-rule:evenodd;}</style></defs><g id="Capa_2" data-name="Capa 2"><g id="Layer_1" data-name="Layer 1"><path class="cls-1" d="M6,0A6.08,6.08,0,0,0,0,6.15,6.14,6.14,0,0,0,4.1,12c.3.06.41-.13.41-.3s0-.53,0-1c-1.66.37-2-.83-2-.83a1.62,1.62,0,0,0-.66-.9c-.55-.38,0-.37,0-.37a1.26,1.26,0,0,1,.92.63,1.25,1.25,0,0,0,1.74.51,1.37,1.37,0,0,1,.38-.82,2.69,2.69,0,0,1-2.73-3,2.43,2.43,0,0,1,.62-1.65,2.26,2.26,0,0,1,.06-1.63s.5-.16,1.65.63a5.72,5.72,0,0,1,3,0c1.15-.79,1.65-.63,1.65-.63a2.26,2.26,0,0,1,.06,1.63,2.39,2.39,0,0,1,.62,1.65,2.7,2.7,0,0,1-2.74,3A1.5,1.5,0,0,1,7.5,10c0,.82,0,1.48,0,1.68s.11.36.41.3A6.15,6.15,0,0,0,12,6.15,6.08,6.08,0,0,0,6,0Z"/></g></g></svg>